<svg width="40" height="34" viewBox="0 0 40 34" fill="none" xmlns="http://www.w3.org/2000/svg">
<path d="M10.4748 0.464752C7.78367 0.464752 5.38615 1.58822 3.57577 3.3467C1.81433 5.10517 0.688965 7.49865 0.688965 10.2341C0.688965 12.9206 1.81433 15.3141 3.57577 17.1214L20.2606 33.7781L36.9453 17.1214C38.7068 15.3629 39.8321 12.9695 39.8321 10.2341C39.8321 7.5475 38.7068 5.15402 36.9453 3.3467C35.1839 1.58822 32.7864 0.464752 30.0463 0.464752C27.3553 0.464752 24.9577 1.58822 23.1474 3.3467C21.3859 5.10517 20.2606 7.49865 20.2606 10.2341C20.2606 7.5475 19.1352 5.15402 17.3737 3.3467C15.6123 1.58822 13.2148 0.464752 10.4748 0.464752Z" fill="#8A3737"/>
</svg>
