<svg width="47" height="40" viewBox="0 0 47 40" fill="none" xmlns="http://www.w3.org/2000/svg">
<path d="M11.75 0C8.51875 0 5.64 1.34897 3.46625 3.46041C1.35125 5.57185 0 8.44575 0 11.7302C0 14.956 1.35125 17.8299 3.46625 20L23.5 40L43.5337 20C45.6488 17.8886 47 15.0147 47 11.7302C47 8.5044 45.6488 5.6305 43.5337 3.46041C41.4188 1.34897 38.54 0 35.25 0C32.0187 0 29.14 1.34897 26.9663 3.46041C24.8513 5.57185 23.5 8.44575 23.5 11.7302C23.5 8.5044 22.1488 5.6305 20.0338 3.46041C17.9188 1.34897 15.04 0 11.75 0Z" fill="#232323"/>
</svg>
